<svg width="256px" height="184px" viewBox="0 0 256 184" version="1.1" xmlns="http://www.w3.org/2000/svg" xmlns:xlink="http://www.w3.org/1999/xlink">
    <g id="页面-1" stroke="none" stroke-width="1" fill="none" fill-rule="evenodd">
        <g id="编组" transform="translate(0.000000, -0.000000)" fill="#09090B">
            <path d="M173.611,130.1151 L132.877,183.6081 L173.524,183.6081 L193.973,155.6171 L213.183,183.6081 L256,183.6081 L215.673,129.5111 L215.15,128.8501 L207.461,119.1361 L195.329,103.8081 L195.258,103.7191 L193.813,101.8931 L193.923,101.8051 L176.286,76.6651 L134.061,76.6651 L173.611,130.1151 Z M199.89,97.3581 L214.959,76.6651 L254.619,76.6651 L219.874,122.6041 L199.89,97.3581 Z" id="形状"></path>
            <path d="M79.3701278,2.84217094e-14 C35.6041165,2.84217094e-14 0,30.979165 0,69.06 C0,107.140835 35.6041165,138.12 79.3701278,138.12 L85.0318636,138.12 C91.3682455,131.357875 97.6715565,124.57273 103.99471,117.799095 L79.3701278,117.799095 C48.4885339,117.799095 23.3546601,95.930095 23.3546601,69.06 C23.3546601,42.18415 48.4885339,20.320905 79.3701278,20.320905 L108.307154,20.320905 L127.27,2.84217094e-14 L79.3701278,2.84217094e-14 Z M103.713763,117.402 L127.27,92.023266 L127.27,56.9745 L77.2221687,56.9745 L58.135679,77.567763 L103.713763,77.567763 L103.713763,117.402 Z" id="形状" fill-rule="nonzero"></path>
        </g>
    </g>
</svg>