
<svg width="530px" height="530px" viewBox="0 0 530 530" version="1.1" xmlns="http://www.w3.org/2000/svg" xmlns:xlink="http://www.w3.org/1999/xlink">
    <defs>
        <filter x="-2.3%" y="-2.3%" width="104.7%" height="104.7%" filterUnits="objectBoundingBox" id="filter-hzcuof7wer-1">
            <feOffset dx="0" dy="2" in="SourceAlpha" result="shadowOffsetOuter1"></feOffset>
            <feGaussianBlur stdDeviation="2" in="shadowOffsetOuter1" result="shadowBlurOuter1"></feGaussianBlur>
            <feColorMatrix values="0 0 0 0 0   0 0 0 0 0   0 0 0 0 0  0 0 0 0.5 0" type="matrix" in="shadowBlurOuter1" result="shadowMatrixOuter1"></feColorMatrix>
            <feMerge>
                <feMergeNode in="shadowMatrixOuter1"></feMergeNode>
                <feMergeNode in="SourceGraphic"></feMergeNode>
            </feMerge>
        </filter>
    </defs>
    <g id="resume-logo" stroke="none" stroke-width="1" fill="none" fill-rule="evenodd">
        <g id="resume-dark" filter="url(#filter-hzcuof7wer-1)" transform="translate(9.000000, 9.000000)">
            <rect id="矩形" fill="#09090B" fill-rule="nonzero" x="0" y="0" width="512" height="512"></rect>
            <path d="M69.6,288 L69.6,232 L95.2,232 C100.32,232 104.72,232.827 108.4,234.48 C112.133,236.133 115.013,238.533 117.04,241.68 C119.067,244.773 120.08,248.453 120.08,252.72 C120.08,256.933 119.067,260.587 117.04,263.68 C115.013,266.72 112.133,269.067 108.4,270.72 C104.72,272.32 100.32,273.12 95.2,273.12 L78.4,273.12 L85.44,266.48 L85.44,288 L69.6,288 Z M104.24,288 L90.32,267.6 L107.2,267.6 L121.2,288 L104.24,288 Z M85.44,268.16 L78.4,260.88 L94.24,260.88 C97.5467,260.88 100,260.16 101.6,258.72 C103.253,257.28 104.08,255.28 104.08,252.72 C104.08,250.107 103.253,248.08 101.6,246.64 C100,245.2 97.5467,244.48 94.24,244.48 L78.4,244.48 L85.44,237.2 L85.44,268.16 Z M150.819,288.72 C145.699,288.72 141.219,287.76 137.379,285.84 C133.592,283.867 130.632,281.2 128.499,277.84 C126.419,274.427 125.379,270.56 125.379,266.24 C125.379,261.92 126.392,258.08 128.419,254.72 C130.499,251.307 133.352,248.667 136.979,246.8 C140.605,244.88 144.685,243.92 149.219,243.92 C153.485,243.92 157.379,244.8 160.899,246.56 C164.419,248.267 167.219,250.8 169.299,254.16 C171.379,257.52 172.419,261.6 172.419,266.4 C172.419,266.933 172.392,267.547 172.339,268.24 C172.285,268.933 172.232,269.573 172.179,270.16 L137.859,270.16 L137.859,262.16 L164.099,262.16 L158.339,264.4 C158.392,262.427 158.019,260.72 157.219,259.28 C156.472,257.84 155.405,256.72 154.019,255.92 C152.685,255.12 151.112,254.72 149.299,254.72 C147.485,254.72 145.885,255.12 144.499,255.92 C143.165,256.72 142.125,257.867 141.379,259.36 C140.632,260.8 140.259,262.507 140.259,264.48 L140.259,266.8 C140.259,268.933 140.685,270.773 141.539,272.32 C142.445,273.867 143.725,275.067 145.379,275.92 C147.032,276.72 149.005,277.12 151.299,277.12 C153.432,277.12 155.245,276.827 156.739,276.24 C158.285,275.6 159.805,274.64 161.299,273.36 L169.299,281.68 C167.219,283.973 164.659,285.733 161.619,286.96 C158.579,288.133 154.979,288.72 150.819,288.72 Z M195.187,288.72 C191.507,288.72 187.907,288.293 184.387,287.44 C180.92,286.587 178.12,285.52 175.987,284.24 L180.547,273.84 C182.574,275.067 184.947,276.053 187.667,276.8 C190.387,277.493 193.054,277.84 195.667,277.84 C198.227,277.84 199.987,277.573 200.947,277.04 C201.96,276.507 202.467,275.787 202.467,274.88 C202.467,274.027 201.987,273.413 201.027,273.04 C200.12,272.613 198.894,272.293 197.347,272.08 C195.854,271.867 194.2,271.627 192.387,271.36 C190.574,271.093 188.734,270.747 186.867,270.32 C185.054,269.84 183.374,269.147 181.827,268.24 C180.334,267.28 179.134,266 178.227,264.4 C177.32,262.8 176.867,260.773 176.867,258.32 C176.867,255.547 177.667,253.093 179.267,250.96 C180.92,248.773 183.32,247.067 186.467,245.84 C189.614,244.56 193.454,243.92 197.987,243.92 C201.027,243.92 204.094,244.24 207.187,244.88 C210.334,245.467 212.974,246.373 215.107,247.6 L210.547,257.92 C208.414,256.693 206.28,255.867 204.147,255.44 C202.014,254.96 199.987,254.72 198.067,254.72 C195.507,254.72 193.694,255.013 192.627,255.6 C191.614,256.187 191.107,256.907 191.107,257.76 C191.107,258.613 191.56,259.28 192.467,259.76 C193.374,260.187 194.574,260.533 196.067,260.8 C197.614,261.013 199.294,261.253 201.107,261.52 C202.92,261.733 204.734,262.08 206.547,262.56 C208.414,263.04 210.094,263.76 211.587,264.72 C213.134,265.627 214.36,266.88 215.267,268.48 C216.174,270.027 216.627,272.027 216.627,274.48 C216.627,277.147 215.8,279.547 214.147,281.68 C212.547,283.813 210.147,285.52 206.947,286.8 C203.8,288.08 199.88,288.72 195.187,288.72 Z M241.417,288.72 C237.897,288.72 234.724,288.027 231.897,286.64 C229.124,285.253 226.937,283.093 225.337,280.16 C223.79,277.173 223.017,273.413 223.017,268.88 L223.017,244.64 L238.217,244.64 L238.217,266.4 C238.217,269.76 238.83,272.16 240.057,273.6 C241.337,275.04 243.124,275.76 245.417,275.76 C246.91,275.76 248.27,275.413 249.497,274.72 C250.724,274.027 251.71,272.933 252.457,271.44 C253.204,269.893 253.577,267.92 253.577,265.52 L253.577,244.64 L268.777,244.64 L268.777,288 L254.297,288 L254.297,275.76 L257.097,279.2 C255.604,282.4 253.444,284.8 250.617,286.4 C247.79,287.947 244.724,288.72 241.417,288.72 Z M335.048,243.92 C338.408,243.92 341.394,244.613 344.008,246 C346.674,247.333 348.754,249.413 350.248,252.24 C351.794,255.067 352.568,258.72 352.568,263.2 L352.568,288 L337.368,288 L337.368,265.68 C337.368,262.587 336.781,260.347 335.608,258.96 C334.434,257.52 332.834,256.8 330.808,256.8 C329.368,256.8 328.061,257.147 326.888,257.84 C325.714,258.533 324.808,259.6 324.168,261.04 C323.528,262.427 323.208,264.24 323.208,266.48 L323.208,288 L308.008,288 L308.008,265.68 C308.008,262.587 307.421,260.347 306.248,258.96 C305.128,257.52 303.528,256.8 301.448,256.8 C299.954,256.8 298.621,257.147 297.448,257.84 C296.328,258.533 295.421,259.6 294.728,261.04 C294.088,262.427 293.768,264.24 293.768,266.48 L293.768,288 L278.568,288 L278.568,244.64 L293.048,244.64 L293.048,256.72 L290.168,253.28 C291.768,250.187 293.954,247.867 296.728,246.32 C299.501,244.72 302.594,243.92 306.008,243.92 C309.901,243.92 313.314,244.933 316.248,246.96 C319.234,248.933 321.234,252.027 322.248,256.24 L317.288,255.2 C318.834,251.68 321.154,248.933 324.248,246.96 C327.394,244.933 330.994,243.92 335.048,243.92 Z M385.428,288.72 C380.308,288.72 375.828,287.76 371.988,285.84 C368.201,283.867 365.241,281.2 363.108,277.84 C361.028,274.427 359.988,270.56 359.988,266.24 C359.988,261.92 361.001,258.08 363.028,254.72 C365.108,251.307 367.961,248.667 371.588,246.8 C375.215,244.88 379.295,243.92 383.828,243.92 C388.095,243.92 391.988,244.8 395.508,246.56 C399.028,248.267 401.828,250.8 403.908,254.16 C405.988,257.52 407.028,261.6 407.028,266.4 C407.028,266.933 407.001,267.547 406.948,268.24 C406.895,268.933 406.841,269.573 406.788,270.16 L372.468,270.16 L372.468,262.16 L398.708,262.16 L392.948,264.4 C393.001,262.427 392.628,260.72 391.828,259.28 C391.081,257.84 390.015,256.72 388.628,255.92 C387.295,255.12 385.721,254.72 383.908,254.72 C382.095,254.72 380.495,255.12 379.108,255.92 C377.775,256.72 376.735,257.867 375.988,259.36 C375.241,260.8 374.868,262.507 374.868,264.48 L374.868,266.8 C374.868,268.933 375.295,270.773 376.148,272.32 C377.055,273.867 378.335,275.067 379.988,275.92 C381.641,276.72 383.615,277.12 385.908,277.12 C388.041,277.12 389.855,276.827 391.348,276.24 C392.895,275.6 394.415,274.64 395.908,273.36 L403.908,281.68 C401.828,283.973 399.268,285.733 396.228,286.96 C393.188,288.133 389.588,288.72 385.428,288.72 Z" id="形状" fill="#FAFAFA" fill-rule="nonzero"></path>
            <line x1="60" y1="358" x2="360" y2="358" id="路径" stroke="#FAFAFA" stroke-width="20" opacity="0.1"></line>
            <line x1="60" y1="398" x2="300" y2="398" id="路径" stroke="#FAFAFA" stroke-width="20" opacity="0.2"></line>
            <line x1="60" y1="438" x2="240" y2="438" id="路径" stroke="#FAFAFA" stroke-width="20" opacity="0.1"></line>
            <path d="M121.451752,98.91 C92.5896378,98.91 69.11,119.340728 69.11,144.455 C69.11,169.569272 92.5896378,190 121.451752,190 L125.185464,190 C129.364081,185.540385 133.520888,181.065589 137.690781,176.598384 L121.451752,176.598384 C101.086449,176.598384 84.5115606,162.1758 84.5115606,144.455 C84.5115606,126.730404 101.086449,112.311616 121.451752,112.311616 L140.534683,112.311616 L153.04,98.91 L121.451752,98.91 Z M137.505506,176.3365 L153.04,159.599251 L153.04,136.484625 L120.03525,136.484625 L107.448395,150.065861 L137.505506,150.065861 L137.505506,176.3365 Z" id="形状" fill="#FAFAFA" fill-rule="nonzero"></path>
            <g id="形状" transform="translate(150.000000, 116.000000)" fill-rule="nonzero">
                <path d="M8.43162676,15.8153167 C7.12812446,15.8153167 6.12244898,14.8074757 6.12244898,13.5168737 C6.12244898,12.252528 7.12200473,11.2244898 8.43162676,11.2244898 C9.68821114,11.2244898 10.7142857,12.252528 10.7142857,13.5168737 C10.7142857,14.8074757 9.68923109,15.8163265 8.43060681,15.8163265 L8.43162676,15.8153167 Z M11.1369051,7.82476136 L10.9684314,8.86565435 C10.2914579,7.68085735 8.45801612,7.65595053 7.47378351,7.70753198 C4.40572158,7.86832229 1.88303261,10.9384996 2.09409048,14.9657237 C2.26380154,18.2040037 4.31904857,20.1345668 6.76663862,20.0062941 C8.13437897,19.9346138 9.27782542,19.5603122 10.1757991,18.3798428 L9.98592415,19.5294071 L13.8428272,19.3272754 L14.9927688,7.6226841 C13.7060411,7.68908451 12.413726,7.76818733 11.1369051,7.82476136 L11.1369051,7.82476136 Z M12.5,0 C19.40625,0 25,5.59375 25,12.5 C25,19.40625 19.40625,25 12.5,25 C5.59375,25 0,19.40625 0,12.5 C0,5.59375 5.59375,0 12.5,0 Z" fill="#FAFAFA"></path>
                <path d="M16.3299056,6.91044914 C16.3299056,5.64050568 17.3582312,4.61453078 18.6254747,4.61453078 C19.8920197,4.61453078 20.9217424,5.64268397 20.9217424,6.91044914 C20.9217424,8.17821431 19.8934168,9.20636751 18.6254747,9.20636751 C17.356834,9.20636751 16.3299056,8.17966651 16.3299056,6.91044914 Z" id="路径" fill="#09090B" transform="translate(18.625824, 6.910449) rotate(5.000000) translate(-18.625824, -6.910449) "></path>
                <path d="M21.0943612,16.7996927 L20.6568393,16.7996927 C19.7597707,16.7996927 19.3073671,15.9860078 19.3073671,14.7042068 L19.3073671,12.2974047 L15.9923204,12.2974047 L15.9923204,15.7089439 C15.9923204,19.4150539 17.913845,20.9708741 19.7740571,20.9708741 L21.0943612,20.9708741 L21.0943612,16.7996927 Z" id="路径" fill="#09090B" transform="translate(18.543341, 16.634139) rotate(8.000000) translate(-18.543341, -16.634139) "></path>
            </g>
            <path d="M183.603,184.722 L156.74,220 L183.545,220 L197.032,201.54 L209.701,220 L237.938,220 L211.008,183.874 L211.014,183.866 L210.81,183.608 L205.927,177.44 L197.895,167.292 L197.882,167.31 L197.669,167.007 L196.926,166.068 L196.98,166.025 L185.367,149.472 L157.52,149.472 L183.603,184.722 Z M200.951,163.096 L214.129,179.747 L237.027,149.472 L210.872,149.472 L200.951,163.096 Z" id="形状" fill="#FAFAFA"></path>
        </g>
    </g>
</svg>