
<svg width="512px" height="512px" viewBox="0 0 512 512" version="1.1" xmlns="http://www.w3.org/2000/svg" xmlns:xlink="http://www.w3.org/1999/xlink">
    <g id="页面-1" stroke="none" stroke-width="1" fill="none" fill-rule="evenodd">
        <g id="logo-light">
            <rect id="矩形" fill="#FAFAFA" fill-rule="nonzero" x="0" y="0" width="512" height="512" rx="9"></rect>
            <path d="M121.451752,98.91 C92.5896378,98.91 69.11,119.340728 69.11,144.455 C69.11,169.569272 92.5896378,190 121.451752,190 L125.185464,190 C129.364081,185.540385 133.520888,181.065589 137.690781,176.598384 L121.451752,176.598384 C101.086449,176.598384 84.5115606,162.1758 84.5115606,144.455 C84.5115606,126.730404 101.086449,112.311616 121.451752,112.311616 L140.534683,112.311616 L153.04,98.91 L121.451752,98.91 Z M137.505506,176.3365 L153.04,159.599251 L153.04,136.484625 L120.03525,136.484625 L107.448395,150.065861 L137.505506,150.065861 L137.505506,176.3365 Z" id="形状" fill="#3F3F46" fill-rule="nonzero"></path>
            <path d="M160.431627,134.815317 C159.128124,134.815317 158.122449,133.807476 158.122449,132.516874 C158.122449,131.252528 159.122005,130.22449 160.431627,130.22449 C161.688211,130.22449 162.714286,131.252528 162.714286,132.516874 C162.714286,133.807476 161.689231,134.816327 160.430607,134.816327 L160.431627,134.815317 Z M163.136905,126.824761 L162.968431,127.865654 C162.291458,126.680857 160.458016,126.655951 159.473784,126.707532 C156.405722,126.868322 153.883033,129.9385 154.09409,133.965724 C154.263802,137.204004 156.319049,139.134567 158.766639,139.006294 C160.134379,138.934614 161.277825,138.560312 162.175799,137.379843 L161.985924,138.529407 L165.842827,138.327275 L166.992769,126.622684 C165.706041,126.689085 164.413726,126.768187 163.136905,126.824761 L163.136905,126.824761 Z M164.5,119 C171.40625,119 177,124.59375 177,131.5 C177,138.40625 171.40625,144 164.5,144 C157.59375,144 152,138.40625 152,131.5 C152,124.59375 157.59375,119 164.5,119 Z" id="形状" fill="#3F3F46" fill-rule="nonzero"></path>
            <path d="M173.094361,135.799693 L172.656839,135.799693 C171.759771,135.799693 171.307367,134.986008 171.307367,133.704207 L171.307367,131.297405 L167.99232,131.297405 L167.99232,134.708944 C167.99232,138.415054 169.913845,139.970874 171.774057,139.970874 L173.094361,139.970874 L173.094361,135.799693 Z" id="路径" fill="#FAFAFA" fill-rule="nonzero" transform="translate(170.543341, 135.634139) rotate(8.000000) translate(-170.543341, -135.634139) "></path>
            <path d="M168.329906,125.910449 C168.329906,124.640506 169.358231,123.614531 170.625475,123.614531 C171.89202,123.614531 172.921742,124.642684 172.921742,125.910449 C172.921742,127.178214 171.893417,128.206368 170.625475,128.206368 C169.356834,128.206368 168.329906,127.179667 168.329906,125.910449 Z" id="路径" fill="#FAFAFA" fill-rule="nonzero" transform="translate(170.625824, 125.910449) rotate(5.000000) translate(-170.625824, -125.910449) "></path>
            <path d="M69.6,288 L69.6,232 L95.2,232 C100.32,232 104.72,232.827 108.4,234.48 C112.133,236.133 115.013,238.533 117.04,241.68 C119.067,244.773 120.08,248.453 120.08,252.72 C120.08,256.933 119.067,260.587 117.04,263.68 C115.013,266.72 112.133,269.067 108.4,270.72 C104.72,272.32 100.32,273.12 95.2,273.12 L78.4,273.12 L85.44,266.48 L85.44,288 L69.6,288 Z M104.24,288 L90.32,267.6 L107.2,267.6 L121.2,288 L104.24,288 Z M85.44,268.16 L78.4,260.88 L94.24,260.88 C97.5467,260.88 100,260.16 101.6,258.72 C103.253,257.28 104.08,255.28 104.08,252.72 C104.08,250.107 103.253,248.08 101.6,246.64 C100,245.2 97.5467,244.48 94.24,244.48 L78.4,244.48 L85.44,237.2 L85.44,268.16 Z M150.819,288.72 C145.699,288.72 141.219,287.76 137.379,285.84 C133.592,283.867 130.632,281.2 128.499,277.84 C126.419,274.427 125.379,270.56 125.379,266.24 C125.379,261.92 126.392,258.08 128.419,254.72 C130.499,251.307 133.352,248.667 136.979,246.8 C140.605,244.88 144.685,243.92 149.219,243.92 C153.485,243.92 157.379,244.8 160.899,246.56 C164.419,248.267 167.219,250.8 169.299,254.16 C171.379,257.52 172.419,261.6 172.419,266.4 C172.419,266.933 172.392,267.547 172.339,268.24 C172.285,268.933 172.232,269.573 172.179,270.16 L137.859,270.16 L137.859,262.16 L164.099,262.16 L158.339,264.4 C158.392,262.427 158.019,260.72 157.219,259.28 C156.472,257.84 155.405,256.72 154.019,255.92 C152.685,255.12 151.112,254.72 149.299,254.72 C147.485,254.72 145.885,255.12 144.499,255.92 C143.165,256.72 142.125,257.867 141.379,259.36 C140.632,260.8 140.259,262.507 140.259,264.48 L140.259,266.8 C140.259,268.933 140.685,270.773 141.539,272.32 C142.445,273.867 143.725,275.067 145.379,275.92 C147.032,276.72 149.005,277.12 151.299,277.12 C153.432,277.12 155.245,276.827 156.739,276.24 C158.285,275.6 159.805,274.64 161.299,273.36 L169.299,281.68 C167.219,283.973 164.659,285.733 161.619,286.96 C158.579,288.133 154.979,288.72 150.819,288.72 Z M195.187,288.72 C191.507,288.72 187.907,288.293 184.387,287.44 C180.92,286.587 178.12,285.52 175.987,284.24 L180.547,273.84 C182.574,275.067 184.947,276.053 187.667,276.8 C190.387,277.493 193.054,277.84 195.667,277.84 C198.227,277.84 199.987,277.573 200.947,277.04 C201.96,276.507 202.467,275.787 202.467,274.88 C202.467,274.027 201.987,273.413 201.027,273.04 C200.12,272.613 198.894,272.293 197.347,272.08 C195.854,271.867 194.2,271.627 192.387,271.36 C190.574,271.093 188.734,270.747 186.867,270.32 C185.054,269.84 183.374,269.147 181.827,268.24 C180.334,267.28 179.134,266 178.227,264.4 C177.32,262.8 176.867,260.773 176.867,258.32 C176.867,255.547 177.667,253.093 179.267,250.96 C180.92,248.773 183.32,247.067 186.467,245.84 C189.614,244.56 193.454,243.92 197.987,243.92 C201.027,243.92 204.094,244.24 207.187,244.88 C210.334,245.467 212.974,246.373 215.107,247.6 L210.547,257.92 C208.414,256.693 206.28,255.867 204.147,255.44 C202.014,254.96 199.987,254.72 198.067,254.72 C195.507,254.72 193.694,255.013 192.627,255.6 C191.614,256.187 191.107,256.907 191.107,257.76 C191.107,258.613 191.56,259.28 192.467,259.76 C193.374,260.187 194.574,260.533 196.067,260.8 C197.614,261.013 199.294,261.253 201.107,261.52 C202.92,261.733 204.734,262.08 206.547,262.56 C208.414,263.04 210.094,263.76 211.587,264.72 C213.134,265.627 214.36,266.88 215.267,268.48 C216.174,270.027 216.627,272.027 216.627,274.48 C216.627,277.147 215.8,279.547 214.147,281.68 C212.547,283.813 210.147,285.52 206.947,286.8 C203.8,288.08 199.88,288.72 195.187,288.72 Z M241.417,288.72 C237.897,288.72 234.724,288.027 231.897,286.64 C229.124,285.253 226.937,283.093 225.337,280.16 C223.79,277.173 223.017,273.413 223.017,268.88 L223.017,244.64 L238.217,244.64 L238.217,266.4 C238.217,269.76 238.83,272.16 240.057,273.6 C241.337,275.04 243.124,275.76 245.417,275.76 C246.91,275.76 248.27,275.413 249.497,274.72 C250.724,274.027 251.71,272.933 252.457,271.44 C253.204,269.893 253.577,267.92 253.577,265.52 L253.577,244.64 L268.777,244.64 L268.777,288 L254.297,288 L254.297,275.76 L257.097,279.2 C255.604,282.4 253.444,284.8 250.617,286.4 C247.79,287.947 244.724,288.72 241.417,288.72 Z M335.048,243.92 C338.408,243.92 341.394,244.613 344.008,246 C346.674,247.333 348.754,249.413 350.248,252.24 C351.794,255.067 352.568,258.72 352.568,263.2 L352.568,288 L337.368,288 L337.368,265.68 C337.368,262.587 336.781,260.347 335.608,258.96 C334.434,257.52 332.834,256.8 330.808,256.8 C329.368,256.8 328.061,257.147 326.888,257.84 C325.714,258.533 324.808,259.6 324.168,261.04 C323.528,262.427 323.208,264.24 323.208,266.48 L323.208,288 L308.008,288 L308.008,265.68 C308.008,262.587 307.421,260.347 306.248,258.96 C305.128,257.52 303.528,256.8 301.448,256.8 C299.954,256.8 298.621,257.147 297.448,257.84 C296.328,258.533 295.421,259.6 294.728,261.04 C294.088,262.427 293.768,264.24 293.768,266.48 L293.768,288 L278.568,288 L278.568,244.64 L293.048,244.64 L293.048,256.72 L290.168,253.28 C291.768,250.187 293.954,247.867 296.728,246.32 C299.501,244.72 302.594,243.92 306.008,243.92 C309.901,243.92 313.314,244.933 316.248,246.96 C319.234,248.933 321.234,252.027 322.248,256.24 L317.288,255.2 C318.834,251.68 321.154,248.933 324.248,246.96 C327.394,244.933 330.994,243.92 335.048,243.92 Z M385.428,288.72 C380.308,288.72 375.828,287.76 371.988,285.84 C368.201,283.867 365.241,281.2 363.108,277.84 C361.028,274.427 359.988,270.56 359.988,266.24 C359.988,261.92 361.001,258.08 363.028,254.72 C365.108,251.307 367.961,248.667 371.588,246.8 C375.215,244.88 379.295,243.92 383.828,243.92 C388.095,243.92 391.988,244.8 395.508,246.56 C399.028,248.267 401.828,250.8 403.908,254.16 C405.988,257.52 407.028,261.6 407.028,266.4 C407.028,266.933 407.001,267.547 406.948,268.24 C406.895,268.933 406.841,269.573 406.788,270.16 L372.468,270.16 L372.468,262.16 L398.708,262.16 L392.948,264.4 C393.001,262.427 392.628,260.72 391.828,259.28 C391.081,257.84 390.015,256.72 388.628,255.92 C387.295,255.12 385.721,254.72 383.908,254.72 C382.095,254.72 380.495,255.12 379.108,255.92 C377.775,256.72 376.735,257.867 375.988,259.36 C375.241,260.8 374.868,262.507 374.868,264.48 L374.868,266.8 C374.868,268.933 375.295,270.773 376.148,272.32 C377.055,273.867 378.335,275.067 379.988,275.92 C381.641,276.72 383.615,277.12 385.908,277.12 C388.041,277.12 389.855,276.827 391.348,276.24 C392.895,275.6 394.415,274.64 395.908,273.36 L403.908,281.68 C401.828,283.973 399.268,285.733 396.228,286.96 C393.188,288.133 389.588,288.72 385.428,288.72 Z" id="形状" fill="#3F3F46" fill-rule="nonzero"></path>
            <line x1="60" y1="358" x2="360" y2="358" id="路径" stroke="#3F3F46" stroke-width="20" opacity="0.1"></line>
            <line x1="60" y1="398" x2="300" y2="398" id="路径" stroke="#3F3F46" stroke-width="20" opacity="0.2"></line>
            <line x1="60" y1="438" x2="240" y2="438" id="路径" stroke="#3F3F46" stroke-width="20" opacity="0.1"></line>
            <path d="M183.603,184.722 L156.74,220 L183.545,220 L197.032,201.54 L209.701,220 L237.938,220 L211.008,183.874 L211.014,183.866 L210.81,183.608 L205.927,177.44 L197.895,167.292 L197.882,167.31 L197.669,167.007 L196.926,166.068 L196.98,166.025 L185.367,149.472 L157.52,149.472 L183.603,184.722 Z M200.951,163.096 L214.129,179.747 L237.027,149.472 L210.872,149.472 L200.951,163.096 Z" id="形状" fill="#3F3F46"></path>
        </g>
    </g>
</svg>